solid OpenSCAD_Model
  facet normal -0.951057 -0.309015 0
    outer loop
      vertex -30.7032 -23.101 -8
      vertex -31.6722 -20.1187 2.4
      vertex -31.6722 -20.1187 -8
    endloop
  endfacet
  facet normal -0.951057 -0.309015 0
    outer loop
      vertex -31.6722 -20.1187 2.4
      vertex -30.7032 -23.101 -8
      vertex -30.7032 -23.101 2.4
    endloop
  endfacet
  facet normal -0.994522 -0.104532 0
    outer loop
      vertex -31.6722 -20.1187 -8
      vertex -32 -17 2.4
      vertex -32 -17 -8
    endloop
  endfacet
  facet normal -0.994522 -0.104532 0
    outer loop
      vertex -32 -17 2.4
      vertex -31.6722 -20.1187 -8
      vertex -31.6722 -20.1187 2.4
    endloop
  endfacet
  facet normal -0.866035 -0.499984 0
    outer loop
      vertex -29.1353 -25.8168 -8
      vertex -30.7032 -23.101 2.4
      vertex -30.7032 -23.101 -8
    endloop
  endfacet
  facet normal -0.866035 -0.499984 0
    outer loop
      vertex -30.7032 -23.101 2.4
      vertex -29.1353 -25.8168 -8
      vertex -29.1353 -25.8168 2.4
    endloop
  endfacet
  facet normal 0 -1 0
    outer loop
      vertex -18.5679 -31.9178 -8
      vertex 15 -31.9178 2.4
      vertex -18.5679 -31.9178 2.4
    endloop
  endfacet
  facet normal 0 -1 -0
    outer loop
      vertex 15 -31.9178 2.4
      vertex -18.5679 -31.9178 -8
      vertex 15 -31.9178 -8
    endloop
  endfacet
  facet normal -1 0 0
    outer loop
      vertex -32 -17 -8
      vertex -32 15 2.4
      vertex -32 15 -8
    endloop
  endfacet
  facet normal -1 -0 0
    outer loop
      vertex -32 15 2.4
      vertex -32 -17 -8
      vertex -32 -17 2.4
    endloop
  endfacet
  facet normal -0.743145 -0.66913 0
    outer loop
      vertex -27.037 -28.1472 -8
      vertex -29.1353 -25.8168 2.4
      vertex -29.1353 -25.8168 -8
    endloop
  endfacet
  facet normal -0.743145 -0.66913 0
    outer loop
      vertex -29.1353 -25.8168 2.4
      vertex -27.037 -28.1472 -8
      vertex -27.037 -28.1472 2.4
    endloop
  endfacet
  facet normal -0.207913 -0.978147 0
    outer loop
      vertex -21.6353 -31.2658 -8
      vertex -18.5679 -31.9178 2.4
      vertex -21.6353 -31.2658 2.4
    endloop
  endfacet
  facet normal -0.207913 -0.978147 -0
    outer loop
      vertex -18.5679 -31.9178 2.4
      vertex -21.6353 -31.2658 -8
      vertex -18.5679 -31.9178 -8
    endloop
  endfacet
  facet normal -0.406724 -0.913551 0
    outer loop
      vertex -24.5 -29.9904 -8
      vertex -21.6353 -31.2658 2.4
      vertex -24.5 -29.9904 2.4
    endloop
  endfacet
  facet normal -0.406724 -0.913551 -0
    outer loop
      vertex -21.6353 -31.2658 2.4
      vertex -24.5 -29.9904 -8
      vertex -21.6353 -31.2658 -8
    endloop
  endfacet
  facet normal -0.587777 -0.809023 0
    outer loop
      vertex -27.037 -28.1472 -8
      vertex -24.5 -29.9904 2.4
      vertex -27.037 -28.1472 2.4
    endloop
  endfacet
  facet normal -0.587777 -0.809023 -0
    outer loop
      vertex -24.5 -29.9904 2.4
      vertex -27.037 -28.1472 -8
      vertex -24.5 -29.9904 -8
    endloop
  endfacet
  facet normal 0 0 -1
    outer loop
      vertex -22 -22 0
      vertex 15 15 0
      vertex 15 -22 0
    endloop
  endfacet
  facet normal -0 0 -1
    outer loop
      vertex 15 15 0
      vertex -22 -22 0
      vertex -22 15 0
    endloop
  endfacet
  facet normal 0 0 1
    outer loop
      vertex 15 15 2.4
      vertex -18.5679 -31.9178 2.4
      vertex 15 -31.9178 2.4
    endloop
  endfacet
  facet normal -0 0 1
    outer loop
      vertex -32 -17 2.4
      vertex -18.5679 -31.9178 2.4
      vertex 15 15 2.4
    endloop
  endfacet
  facet normal 0 0 1
    outer loop
      vertex -18.5679 -31.9178 2.4
      vertex -32 -17 2.4
      vertex -21.6353 -31.2658 2.4
    endloop
  endfacet
  facet normal 0 0 1
    outer loop
      vertex -21.6353 -31.2658 2.4
      vertex -32 -17 2.4
      vertex -24.5 -29.9904 2.4
    endloop
  endfacet
  facet normal 0 0 1
    outer loop
      vertex -24.5 -29.9904 2.4
      vertex -32 -17 2.4
      vertex -27.037 -28.1472 2.4
    endloop
  endfacet
  facet normal 0 0 1
    outer loop
      vertex -27.037 -28.1472 2.4
      vertex -32 -17 2.4
      vertex -29.1353 -25.8168 2.4
    endloop
  endfacet
  facet normal 0 0 1
    outer loop
      vertex -29.1353 -25.8168 2.4
      vertex -32 -17 2.4
      vertex -30.7032 -23.101 2.4
    endloop
  endfacet
  facet normal 0 0 1
    outer loop
      vertex -32 -17 2.4
      vertex 15 15 2.4
      vertex -32 15 2.4
    endloop
  endfacet
  facet normal 0 0 1
    outer loop
      vertex -30.7032 -23.101 2.4
      vertex -32 -17 2.4
      vertex -31.6722 -20.1187 2.4
    endloop
  endfacet
  facet normal 0 0 -1
    outer loop
      vertex -18.5679 -31.9178 -8
      vertex 15 -22 -8
      vertex 15 -31.9178 -8
    endloop
  endfacet
  facet normal 0 0 -1
    outer loop
      vertex -22 -22 -8
      vertex -18.5679 -31.9178 -8
      vertex -21.6353 -31.2658 -8
    endloop
  endfacet
  facet normal 0 0 -1
    outer loop
      vertex -18.5679 -31.9178 -8
      vertex -22 -22 -8
      vertex 15 -22 -8
    endloop
  endfacet
  facet normal 0 0 -1
    outer loop
      vertex -24.5 -29.9904 -8
      vertex -22 -22 -8
      vertex -21.6353 -31.2658 -8
    endloop
  endfacet
  facet normal 0 0 -1
    outer loop
      vertex -27.037 -28.1472 -8
      vertex -22 -22 -8
      vertex -24.5 -29.9904 -8
    endloop
  endfacet
  facet normal 0 0 -1
    outer loop
      vertex -29.1353 -25.8168 -8
      vertex -22 -22 -8
      vertex -27.037 -28.1472 -8
    endloop
  endfacet
  facet normal 0 0 -1
    outer loop
      vertex -30.7032 -23.101 -8
      vertex -22 -22 -8
      vertex -29.1353 -25.8168 -8
    endloop
  endfacet
  facet normal 0 0 -1
    outer loop
      vertex -31.6722 -20.1187 -8
      vertex -22 -22 -8
      vertex -30.7032 -23.101 -8
    endloop
  endfacet
  facet normal 0 0 -1
    outer loop
      vertex -22 -22 -8
      vertex -31.6722 -20.1187 -8
      vertex -32 -17 -8
    endloop
  endfacet
  facet normal 0 0 -1
    outer loop
      vertex -22 -22 -8
      vertex -32 -17 -8
      vertex -22 15 -8
    endloop
  endfacet
  facet normal -0 0 -1
    outer loop
      vertex -22 15 -8
      vertex -32 -17 -8
      vertex -32 15 -8
    endloop
  endfacet
  facet normal 0 1 -0
    outer loop
      vertex 15 -22 -8
      vertex -22 -22 0
      vertex 15 -22 0
    endloop
  endfacet
  facet normal 0 1 0
    outer loop
      vertex -22 -22 0
      vertex 15 -22 -8
      vertex -22 -22 -8
    endloop
  endfacet
  facet normal 1 -0 0
    outer loop
      vertex -22 -22 0
      vertex -22 15 -8
      vertex -22 15 0
    endloop
  endfacet
  facet normal 1 0 0
    outer loop
      vertex -22 15 -8
      vertex -22 -22 0
      vertex -22 -22 -8
    endloop
  endfacet
  facet normal 1 0 0
    outer loop
      vertex 15 15 2.4
      vertex 15 -22 0
      vertex 15 15 0
    endloop
  endfacet
  facet normal 1 -0 0
    outer loop
      vertex 15 -31.9178 2.4
      vertex 15 -22 0
      vertex 15 15 2.4
    endloop
  endfacet
  facet normal 1 0 0
    outer loop
      vertex 15 -31.9178 -8
      vertex 15 -22 0
      vertex 15 -31.9178 2.4
    endloop
  endfacet
  facet normal 1 0 0
    outer loop
      vertex 15 -22 0
      vertex 15 -31.9178 -8
      vertex 15 -22 -8
    endloop
  endfacet
  facet normal 0 1 0
    outer loop
      vertex -22 15 0
      vertex 15 15 2.4
      vertex 15 15 0
    endloop
  endfacet
  facet normal 0 1 0
    outer loop
      vertex 15 15 2.4
      vertex -22 15 0
      vertex -32 15 2.4
    endloop
  endfacet
  facet normal 0 1 0
    outer loop
      vertex -32 15 -8
      vertex -22 15 0
      vertex -22 15 -8
    endloop
  endfacet
  facet normal 0 1 0
    outer loop
      vertex -22 15 0
      vertex -32 15 -8
      vertex -32 15 2.4
    endloop
  endfacet
  facet normal -0.951057 -0.309015 0
    outer loop
      vertex 47.2968 -23.101 -10
      vertex 46.3278 -20.1187 2.4
      vertex 46.3278 -20.1187 -10
    endloop
  endfacet
  facet normal -0.951057 -0.309015 0
    outer loop
      vertex 46.3278 -20.1187 2.4
      vertex 47.2968 -23.101 -10
      vertex 47.2968 -23.101 2.4
    endloop
  endfacet
  facet normal -0.994522 -0.104532 0
    outer loop
      vertex 46.3278 -20.1187 -10
      vertex 46 -17 2.4
      vertex 46 -17 -10
    endloop
  endfacet
  facet normal -0.994522 -0.104532 0
    outer loop
      vertex 46 -17 2.4
      vertex 46.3278 -20.1187 -10
      vertex 46.3278 -20.1187 2.4
    endloop
  endfacet
  facet normal -0.587777 -0.809023 0
    outer loop
      vertex 50.963 -28.1472 -10
      vertex 53.5 -29.9904 2.4
      vertex 50.963 -28.1472 2.4
    endloop
  endfacet
  facet normal -0.587777 -0.809023 -0
    outer loop
      vertex 53.5 -29.9904 2.4
      vertex 50.963 -28.1472 -10
      vertex 53.5 -29.9904 -10
    endloop
  endfacet
  facet normal 0 -1 0
    outer loop
      vertex 59.4321 -31.9178 -10
      vertex 93 -31.9178 2.4
      vertex 59.4321 -31.9178 2.4
    endloop
  endfacet
  facet normal 0 -1 -0
    outer loop
      vertex 93 -31.9178 2.4
      vertex 59.4321 -31.9178 -10
      vertex 93 -31.9178 -10
    endloop
  endfacet
  facet normal -0.207913 -0.978147 0
    outer loop
      vertex 56.3647 -31.2658 -10
      vertex 59.4321 -31.9178 2.4
      vertex 56.3647 -31.2658 2.4
    endloop
  endfacet
  facet normal -0.207913 -0.978147 -0
    outer loop
      vertex 59.4321 -31.9178 2.4
      vertex 56.3647 -31.2658 -10
      vertex 59.4321 -31.9178 -10
    endloop
  endfacet
  facet normal -1 0 0
    outer loop
      vertex 46 -17 -10
      vertex 46 15 2.4
      vertex 46 15 -10
    endloop
  endfacet
  facet normal -1 -0 0
    outer loop
      vertex 46 15 2.4
      vertex 46 -17 -10
      vertex 46 -17 2.4
    endloop
  endfacet
  facet normal -0.866035 -0.499984 0
    outer loop
      vertex 48.8647 -25.8168 -10
      vertex 47.2968 -23.101 2.4
      vertex 47.2968 -23.101 -10
    endloop
  endfacet
  facet normal -0.866035 -0.499984 0
    outer loop
      vertex 47.2968 -23.101 2.4
      vertex 48.8647 -25.8168 -10
      vertex 48.8647 -25.8168 2.4
    endloop
  endfacet
  facet normal -0.406724 -0.913551 0
    outer loop
      vertex 53.5 -29.9904 -10
      vertex 56.3647 -31.2658 2.4
      vertex 53.5 -29.9904 2.4
    endloop
  endfacet
  facet normal -0.406724 -0.913551 -0
    outer loop
      vertex 56.3647 -31.2658 2.4
      vertex 53.5 -29.9904 -10
      vertex 56.3647 -31.2658 -10
    endloop
  endfacet
  facet normal -0.743145 -0.66913 0
    outer loop
      vertex 50.963 -28.1472 -10
      vertex 48.8647 -25.8168 2.4
      vertex 48.8647 -25.8168 -10
    endloop
  endfacet
  facet normal -0.743145 -0.66913 0
    outer loop
      vertex 48.8647 -25.8168 2.4
      vertex 50.963 -28.1472 -10
      vertex 50.963 -28.1472 2.4
    endloop
  endfacet
  facet normal 0 0 -1
    outer loop
      vertex 56 -22 0
      vertex 93 15 0
      vertex 93 -22 0
    endloop
  endfacet
  facet normal -0 0 -1
    outer loop
      vertex 93 15 0
      vertex 56 -22 0
      vertex 56 15 0
    endloop
  endfacet
  facet normal 0 0 1
    outer loop
      vertex 93 15 2.4
      vertex 59.4321 -31.9178 2.4
      vertex 93 -31.9178 2.4
    endloop
  endfacet
  facet normal -0 0 1
    outer loop
      vertex 46 -17 2.4
      vertex 59.4321 -31.9178 2.4
      vertex 93 15 2.4
    endloop
  endfacet
  facet normal 0 0 1
    outer loop
      vertex 59.4321 -31.9178 2.4
      vertex 46 -17 2.4
      vertex 56.3647 -31.2658 2.4
    endloop
  endfacet
  facet normal 0 0 1
    outer loop
      vertex 56.3647 -31.2658 2.4
      vertex 46 -17 2.4
      vertex 53.5 -29.9904 2.4
    endloop
  endfacet
  facet normal 0 0 1
    outer loop
      vertex 53.5 -29.9904 2.4
      vertex 46 -17 2.4
      vertex 50.963 -28.1472 2.4
    endloop
  endfacet
  facet normal 0 0 1
    outer loop
      vertex 50.963 -28.1472 2.4
      vertex 46 -17 2.4
      vertex 48.8647 -25.8168 2.4
    endloop
  endfacet
  facet normal 0 0 1
    outer loop
      vertex 48.8647 -25.8168 2.4
      vertex 46 -17 2.4
      vertex 47.2968 -23.101 2.4
    endloop
  endfacet
  facet normal 0 0 1
    outer loop
      vertex 46 -17 2.4
      vertex 93 15 2.4
      vertex 46 15 2.4
    endloop
  endfacet
  facet normal 0 0 1
    outer loop
      vertex 47.2968 -23.101 2.4
      vertex 46 -17 2.4
      vertex 46.3278 -20.1187 2.4
    endloop
  endfacet
  facet normal 0 0 -1
    outer loop
      vertex 59.4321 -31.9178 -10
      vertex 93 -22 -10
      vertex 93 -31.9178 -10
    endloop
  endfacet
  facet normal 0 0 -1
    outer loop
      vertex 56 -22 -10
      vertex 59.4321 -31.9178 -10
      vertex 56.3647 -31.2658 -10
    endloop
  endfacet
  facet normal 0 0 -1
    outer loop
      vertex 59.4321 -31.9178 -10
      vertex 56 -22 -10
      vertex 93 -22 -10
    endloop
  endfacet
  facet normal 0 0 -1
    outer loop
      vertex 53.5 -29.9904 -10
      vertex 56 -22 -10
      vertex 56.3647 -31.2658 -10
    endloop
  endfacet
  facet normal 0 0 -1
    outer loop
      vertex 50.963 -28.1472 -10
      vertex 56 -22 -10
      vertex 53.5 -29.9904 -10
    endloop
  endfacet
  facet normal 0 0 -1
    outer loop
      vertex 48.8647 -25.8168 -10
      vertex 56 -22 -10
      vertex 50.963 -28.1472 -10
    endloop
  endfacet
  facet normal 0 0 -1
    outer loop
      vertex 47.2968 -23.101 -10
      vertex 56 -22 -10
      vertex 48.8647 -25.8168 -10
    endloop
  endfacet
  facet normal 0 0 -1
    outer loop
      vertex 46.3278 -20.1187 -10
      vertex 56 -22 -10
      vertex 47.2968 -23.101 -10
    endloop
  endfacet
  facet normal 0 0 -1
    outer loop
      vertex 56 -22 -10
      vertex 46.3278 -20.1187 -10
      vertex 46 -17 -10
    endloop
  endfacet
  facet normal 0 0 -1
    outer loop
      vertex 56 -22 -10
      vertex 46 -17 -10
      vertex 56 15 -10
    endloop
  endfacet
  facet normal -0 0 -1
    outer loop
      vertex 56 15 -10
      vertex 46 -17 -10
      vertex 46 15 -10
    endloop
  endfacet
  facet normal 0 1 -0
    outer loop
      vertex 93 -22 -10
      vertex 56 -22 0
      vertex 93 -22 0
    endloop
  endfacet
  facet normal 0 1 0
    outer loop
      vertex 56 -22 0
      vertex 93 -22 -10
      vertex 56 -22 -10
    endloop
  endfacet
  facet normal 1 -0 0
    outer loop
      vertex 56 -22 0
      vertex 56 15 -10
      vertex 56 15 0
    endloop
  endfacet
  facet normal 1 0 0
    outer loop
      vertex 56 15 -10
      vertex 56 -22 0
      vertex 56 -22 -10
    endloop
  endfacet
  facet normal 1 0 0
    outer loop
      vertex 93 15 2.4
      vertex 93 -22 0
      vertex 93 15 0
    endloop
  endfacet
  facet normal 1 -0 0
    outer loop
      vertex 93 -31.9178 2.4
      vertex 93 -22 0
      vertex 93 15 2.4
    endloop
  endfacet
  facet normal 1 0 0
    outer loop
      vertex 93 -31.9178 -10
      vertex 93 -22 0
      vertex 93 -31.9178 2.4
    endloop
  endfacet
  facet normal 1 0 0
    outer loop
      vertex 93 -22 0
      vertex 93 -31.9178 -10
      vertex 93 -22 -10
    endloop
  endfacet
  facet normal 0 1 0
    outer loop
      vertex 56 15 0
      vertex 93 15 2.4
      vertex 93 15 0
    endloop
  endfacet
  facet normal 0 1 0
    outer loop
      vertex 93 15 2.4
      vertex 56 15 0
      vertex 46 15 2.4
    endloop
  endfacet
  facet normal 0 1 0
    outer loop
      vertex 46 15 -10
      vertex 56 15 0
      vertex 56 15 -10
    endloop
  endfacet
  facet normal 0 1 0
    outer loop
      vertex 56 15 0
      vertex 46 15 -10
      vertex 46 15 2.4
    endloop
  endfacet
  facet normal -0.951057 -0.309015 0
    outer loop
      vertex 125.297 -23.101 -12
      vertex 124.328 -20.1187 2.4
      vertex 124.328 -20.1187 -12
    endloop
  endfacet
  facet normal -0.951057 -0.309015 0
    outer loop
      vertex 124.328 -20.1187 2.4
      vertex 125.297 -23.101 -12
      vertex 125.297 -23.101 2.4
    endloop
  endfacet
  facet normal -0.994515 -0.104595 0
    outer loop
      vertex 124.328 -20.1187 -12
      vertex 124 -17 2.4
      vertex 124 -17 -12
    endloop
  endfacet
  facet normal -0.994515 -0.104595 0
    outer loop
      vertex 124 -17 2.4
      vertex 124.328 -20.1187 -12
      vertex 124.328 -20.1187 2.4
    endloop
  endfacet
  facet normal -0.587777 -0.809023 0
    outer loop
      vertex 128.963 -28.1472 -12
      vertex 131.5 -29.9904 2.4
      vertex 128.963 -28.1472 2.4
    endloop
  endfacet
  facet normal -0.587777 -0.809023 -0
    outer loop
      vertex 131.5 -29.9904 2.4
      vertex 128.963 -28.1472 -12
      vertex 131.5 -29.9904 -12
    endloop
  endfacet
  facet normal 0 -1 0
    outer loop
      vertex 137.432 -31.9178 -12
      vertex 171 -31.9178 2.4
      vertex 137.432 -31.9178 2.4
    endloop
  endfacet
  facet normal 0 -1 -0
    outer loop
      vertex 171 -31.9178 2.4
      vertex 137.432 -31.9178 -12
      vertex 171 -31.9178 -12
    endloop
  endfacet
  facet normal -0.207939 -0.978142 0
    outer loop
      vertex 134.365 -31.2658 -12
      vertex 137.432 -31.9178 2.4
      vertex 134.365 -31.2658 2.4
    endloop
  endfacet
  facet normal -0.207939 -0.978142 -0
    outer loop
      vertex 137.432 -31.9178 2.4
      vertex 134.365 -31.2658 -12
      vertex 137.432 -31.9178 -12
    endloop
  endfacet
  facet normal -1 0 0
    outer loop
      vertex 124 -17 -12
      vertex 124 15 2.4
      vertex 124 15 -12
    endloop
  endfacet
  facet normal -1 -0 0
    outer loop
      vertex 124 15 2.4
      vertex 124 -17 -12
      vertex 124 -17 2.4
    endloop
  endfacet
  facet normal -0.866021 -0.500008 0
    outer loop
      vertex 126.865 -25.8168 -12
      vertex 125.297 -23.101 2.4
      vertex 125.297 -23.101 -12
    endloop
  endfacet
  facet normal -0.866021 -0.500008 0
    outer loop
      vertex 125.297 -23.101 2.4
      vertex 126.865 -25.8168 -12
      vertex 126.865 -25.8168 2.4
    endloop
  endfacet
  facet normal -0.406689 -0.913567 0
    outer loop
      vertex 131.5 -29.9904 -12
      vertex 134.365 -31.2658 2.4
      vertex 131.5 -29.9904 2.4
    endloop
  endfacet
  facet normal -0.406689 -0.913567 -0
    outer loop
      vertex 134.365 -31.2658 2.4
      vertex 131.5 -29.9904 -12
      vertex 134.365 -31.2658 -12
    endloop
  endfacet
  facet normal -0.743193 -0.669077 0
    outer loop
      vertex 128.963 -28.1472 -12
      vertex 126.865 -25.8168 2.4
      vertex 126.865 -25.8168 -12
    endloop
  endfacet
  facet normal -0.743193 -0.669077 0
    outer loop
      vertex 126.865 -25.8168 2.4
      vertex 128.963 -28.1472 -12
      vertex 128.963 -28.1472 2.4
    endloop
  endfacet
  facet normal 0 0 -1
    outer loop
      vertex 134 -22 0
      vertex 171 15 0
      vertex 171 -22 0
    endloop
  endfacet
  facet normal -0 0 -1
    outer loop
      vertex 171 15 0
      vertex 134 -22 0
      vertex 134 15 0
    endloop
  endfacet
  facet normal 0 0 1
    outer loop
      vertex 171 15 2.4
      vertex 137.432 -31.9178 2.4
      vertex 171 -31.9178 2.4
    endloop
  endfacet
  facet normal -0 0 1
    outer loop
      vertex 124 -17 2.4
      vertex 137.432 -31.9178 2.4
      vertex 171 15 2.4
    endloop
  endfacet
  facet normal 0 0 1
    outer loop
      vertex 137.432 -31.9178 2.4
      vertex 124 -17 2.4
      vertex 134.365 -31.2658 2.4
    endloop
  endfacet
  facet normal 0 0 1
    outer loop
      vertex 134.365 -31.2658 2.4
      vertex 124 -17 2.4
      vertex 131.5 -29.9904 2.4
    endloop
  endfacet
  facet normal 0 0 1
    outer loop
      vertex 131.5 -29.9904 2.4
      vertex 124 -17 2.4
      vertex 128.963 -28.1472 2.4
    endloop
  endfacet
  facet normal 0 0 1
    outer loop
      vertex 128.963 -28.1472 2.4
      vertex 124 -17 2.4
      vertex 126.865 -25.8168 2.4
    endloop
  endfacet
  facet normal 0 0 1
    outer loop
      vertex 126.865 -25.8168 2.4
      vertex 124 -17 2.4
      vertex 125.297 -23.101 2.4
    endloop
  endfacet
  facet normal 0 0 1
    outer loop
      vertex 124 -17 2.4
      vertex 171 15 2.4
      vertex 124 15 2.4
    endloop
  endfacet
  facet normal 0 0 1
    outer loop
      vertex 125.297 -23.101 2.4
      vertex 124 -17 2.4
      vertex 124.328 -20.1187 2.4
    endloop
  endfacet
  facet normal 0 0 -1
    outer loop
      vertex 137.432 -31.9178 -12
      vertex 171 -22 -12
      vertex 171 -31.9178 -12
    endloop
  endfacet
  facet normal 0 0 -1
    outer loop
      vertex 134 -22 -12
      vertex 137.432 -31.9178 -12
      vertex 134.365 -31.2658 -12
    endloop
  endfacet
  facet normal 0 0 -1
    outer loop
      vertex 137.432 -31.9178 -12
      vertex 134 -22 -12
      vertex 171 -22 -12
    endloop
  endfacet
  facet normal 0 0 -1
    outer loop
      vertex 131.5 -29.9904 -12
      vertex 134 -22 -12
      vertex 134.365 -31.2658 -12
    endloop
  endfacet
  facet normal 0 0 -1
    outer loop
      vertex 128.963 -28.1472 -12
      vertex 134 -22 -12
      vertex 131.5 -29.9904 -12
    endloop
  endfacet
  facet normal 0 0 -1
    outer loop
      vertex 126.865 -25.8168 -12
      vertex 134 -22 -12
      vertex 128.963 -28.1472 -12
    endloop
  endfacet
  facet normal 0 0 -1
    outer loop
      vertex 125.297 -23.101 -12
      vertex 134 -22 -12
      vertex 126.865 -25.8168 -12
    endloop
  endfacet
  facet normal 0 0 -1
    outer loop
      vertex 124.328 -20.1187 -12
      vertex 134 -22 -12
      vertex 125.297 -23.101 -12
    endloop
  endfacet
  facet normal 0 0 -1
    outer loop
      vertex 134 -22 -12
      vertex 124.328 -20.1187 -12
      vertex 124 -17 -12
    endloop
  endfacet
  facet normal 0 0 -1
    outer loop
      vertex 134 -22 -12
      vertex 124 -17 -12
      vertex 134 15 -12
    endloop
  endfacet
  facet normal -0 0 -1
    outer loop
      vertex 134 15 -12
      vertex 124 -17 -12
      vertex 124 15 -12
    endloop
  endfacet
  facet normal 0 1 -0
    outer loop
      vertex 171 -22 -12
      vertex 134 -22 0
      vertex 171 -22 0
    endloop
  endfacet
  facet normal 0 1 0
    outer loop
      vertex 134 -22 0
      vertex 171 -22 -12
      vertex 134 -22 -12
    endloop
  endfacet
  facet normal 1 -0 0
    outer loop
      vertex 134 -22 0
      vertex 134 15 -12
      vertex 134 15 0
    endloop
  endfacet
  facet normal 1 0 0
    outer loop
      vertex 134 15 -12
      vertex 134 -22 0
      vertex 134 -22 -12
    endloop
  endfacet
  facet normal 1 0 0
    outer loop
      vertex 171 15 2.4
      vertex 171 -22 0
      vertex 171 15 0
    endloop
  endfacet
  facet normal 1 -0 0
    outer loop
      vertex 171 -31.9178 2.4
      vertex 171 -22 0
      vertex 171 15 2.4
    endloop
  endfacet
  facet normal 1 0 0
    outer loop
      vertex 171 -31.9178 -12
      vertex 171 -22 0
      vertex 171 -31.9178 2.4
    endloop
  endfacet
  facet normal 1 0 0
    outer loop
      vertex 171 -22 0
      vertex 171 -31.9178 -12
      vertex 171 -22 -12
    endloop
  endfacet
  facet normal 0 1 0
    outer loop
      vertex 134 15 0
      vertex 171 15 2.4
      vertex 171 15 0
    endloop
  endfacet
  facet normal 0 1 0
    outer loop
      vertex 171 15 2.4
      vertex 134 15 0
      vertex 124 15 2.4
    endloop
  endfacet
  facet normal 0 1 0
    outer loop
      vertex 124 15 -12
      vertex 134 15 0
      vertex 134 15 -12
    endloop
  endfacet
  facet normal 0 1 0
    outer loop
      vertex 134 15 0
      vertex 124 15 -12
      vertex 124 15 2.4
    endloop
  endfacet
endsolid OpenSCAD_Model
